# xmcd
#
# Track frame offsets:
#	183
#	20793
#	48505
#
# Disc length: 1018 seconds
#
# Revision: 0
# Processed by: cddbd v1.5.1PL2 Copyright (c) Steve Scherf et al.
# Submitted via: dBpowerAMP V4.0
#
DISCID=2203f803
DTITLE=John Hiatt - Icy Blue Heart
DYEAR=1988
DGENRE=Blues
TTITLE0=Icy Blue Heart
TTITLE1=Memphis In The Meantime (Live)
TTITLE2=Tip Of My Tongue (Live)
EXTD=
EXTT0=
EXTT1=
EXTT2=
PLAYORDER=
